<mxfile host="app.diagrams.net" agent="Mozilla/5.0 (Macintosh; Intel Mac OS X 10_15_7) AppleWebKit/537.36 (KHTML, like Gecko) Chrome/126.0.0.0 Safari/537.36" version="24.7.4">
  <diagram name="Page-1" id="p9HYjWT8tbd6QwJP4l6s">
    <mxGraphModel dx="1590" dy="2236" grid="1" gridSize="10" guides="1" tooltips="1" connect="1" arrows="1" fold="1" page="1" pageScale="1" pageWidth="827" pageHeight="1169" math="0" shadow="0">
      <root>
        <mxCell id="0" />
        <mxCell id="1" parent="0" />
        <mxCell id="Vkwi1uemp1FhmpMpcFgj-1" value="" style="outlineConnect=0;dashed=0;verticalLabelPosition=bottom;verticalAlign=top;align=center;html=1;shape=mxgraph.aws3.virtual_private_cloud;fillColor=#F58534;gradientColor=none;" parent="1" vertex="1">
          <mxGeometry x="30" y="140" width="79.5" height="54" as="geometry" />
        </mxCell>
        <mxCell id="Vkwi1uemp1FhmpMpcFgj-2" value="VPC" style="sketch=0;outlineConnect=0;gradientColor=none;html=1;whiteSpace=wrap;fontSize=12;fontStyle=0;shape=mxgraph.aws4.group;grIcon=mxgraph.aws4.group_vpc;strokeColor=#879196;fillColor=none;verticalAlign=top;align=left;spacingLeft=30;fontColor=#879196;dashed=0;" parent="1" vertex="1">
          <mxGeometry x="70" y="210" width="1270" height="760" as="geometry" />
        </mxCell>
        <mxCell id="Vkwi1uemp1FhmpMpcFgj-3" value="Subnet" style="sketch=0;outlineConnect=0;gradientColor=none;html=1;whiteSpace=wrap;fontSize=12;fontStyle=0;shape=mxgraph.aws4.group;grIcon=mxgraph.aws4.group_subnet;strokeColor=#879196;fillColor=none;verticalAlign=top;align=left;spacingLeft=30;fontColor=#879196;dashed=0;" parent="1" vertex="1">
          <mxGeometry x="180" y="275" width="440" height="260" as="geometry" />
        </mxCell>
        <mxCell id="Vkwi1uemp1FhmpMpcFgj-4" value="Subnet" style="sketch=0;outlineConnect=0;gradientColor=none;html=1;whiteSpace=wrap;fontSize=12;fontStyle=0;shape=mxgraph.aws4.group;grIcon=mxgraph.aws4.group_subnet;strokeColor=#879196;fillColor=none;verticalAlign=top;align=left;spacingLeft=30;fontColor=#879196;dashed=0;" parent="1" vertex="1">
          <mxGeometry x="180" y="565" width="440" height="260" as="geometry" />
        </mxCell>
        <mxCell id="Vkwi1uemp1FhmpMpcFgj-5" value="Subnet" style="sketch=0;outlineConnect=0;gradientColor=none;html=1;whiteSpace=wrap;fontSize=12;fontStyle=0;shape=mxgraph.aws4.group;grIcon=mxgraph.aws4.group_subnet;strokeColor=#879196;fillColor=none;verticalAlign=top;align=left;spacingLeft=30;fontColor=#879196;dashed=0;" parent="1" vertex="1">
          <mxGeometry x="780" y="275" width="440" height="260" as="geometry" />
        </mxCell>
        <mxCell id="Vkwi1uemp1FhmpMpcFgj-6" value="Subnet" style="sketch=0;outlineConnect=0;gradientColor=none;html=1;whiteSpace=wrap;fontSize=12;fontStyle=0;shape=mxgraph.aws4.group;grIcon=mxgraph.aws4.group_subnet;strokeColor=#879196;fillColor=none;verticalAlign=top;align=left;spacingLeft=30;fontColor=#879196;dashed=0;" parent="1" vertex="1">
          <mxGeometry x="780" y="565" width="440" height="260" as="geometry" />
        </mxCell>
        <mxCell id="Vkwi1uemp1FhmpMpcFgj-7" value="Availability zone" style="sketch=0;outlineConnect=0;gradientColor=none;html=1;whiteSpace=wrap;fontSize=12;fontStyle=0;shape=mxgraph.aws4.group;grIcon=mxgraph.aws4.group_availability_zone;strokeColor=#545B64;fillColor=none;verticalAlign=top;align=left;spacingLeft=30;fontColor=#545B64;dashed=1;" parent="1" vertex="1">
          <mxGeometry x="120" y="250" width="530" height="600" as="geometry" />
        </mxCell>
        <mxCell id="Vkwi1uemp1FhmpMpcFgj-8" value="Availability zone" style="sketch=0;outlineConnect=0;gradientColor=none;html=1;whiteSpace=wrap;fontSize=12;fontStyle=0;shape=mxgraph.aws4.group;grIcon=mxgraph.aws4.group_availability_zone;strokeColor=#545B64;fillColor=none;verticalAlign=top;align=left;spacingLeft=30;fontColor=#545B64;dashed=1;" parent="1" vertex="1">
          <mxGeometry x="760" y="250" width="540" height="600" as="geometry" />
        </mxCell>
        <mxCell id="Vkwi1uemp1FhmpMpcFgj-9" value="" style="sketch=0;outlineConnect=0;fontColor=#232F3E;gradientColor=none;fillColor=#8C4FFF;strokeColor=none;dashed=0;verticalLabelPosition=bottom;verticalAlign=top;align=center;html=1;fontSize=12;fontStyle=0;aspect=fixed;pointerEvents=1;shape=mxgraph.aws4.internet_gateway;" parent="1" vertex="1">
          <mxGeometry x="670" y="197" width="78" height="78" as="geometry" />
        </mxCell>
        <mxCell id="Vkwi1uemp1FhmpMpcFgj-10" value="" style="image;aspect=fixed;perimeter=ellipsePerimeter;html=1;align=center;shadow=0;dashed=0;spacingTop=3;image=img/lib/active_directory/internet_globe.svg;" parent="1" vertex="1">
          <mxGeometry x="650" y="-60" width="130" height="130" as="geometry" />
        </mxCell>
        <mxCell id="Vkwi1uemp1FhmpMpcFgj-11" value="" style="shape=flexArrow;endArrow=classic;startArrow=classic;html=1;rounded=0;entryX=0.5;entryY=1;entryDx=0;entryDy=0;" parent="1" target="Vkwi1uemp1FhmpMpcFgj-10" edge="1">
          <mxGeometry width="100" height="100" relative="1" as="geometry">
            <mxPoint x="715" y="200" as="sourcePoint" />
            <mxPoint x="790" y="380" as="targetPoint" />
          </mxGeometry>
        </mxCell>
        <mxCell id="LoJhDoDqKrCYPIB8af0b-3" value="" style="group" vertex="1" connectable="0" parent="1">
          <mxGeometry x="362.5" y="1040" width="75" height="120" as="geometry" />
        </mxCell>
        <mxCell id="LoJhDoDqKrCYPIB8af0b-1" value="" style="sketch=0;outlineConnect=0;fontColor=#232F3E;gradientColor=none;fillColor=#7AA116;strokeColor=none;dashed=0;verticalLabelPosition=bottom;verticalAlign=top;align=center;html=1;fontSize=12;fontStyle=0;aspect=fixed;pointerEvents=1;shape=mxgraph.aws4.bucket;" vertex="1" parent="LoJhDoDqKrCYPIB8af0b-3">
          <mxGeometry width="75" height="78" as="geometry" />
        </mxCell>
        <mxCell id="LoJhDoDqKrCYPIB8af0b-2" value="S3 Bucket" style="text;html=1;align=center;verticalAlign=middle;whiteSpace=wrap;rounded=0;" vertex="1" parent="LoJhDoDqKrCYPIB8af0b-3">
          <mxGeometry x="7.5" y="90" width="60" height="30" as="geometry" />
        </mxCell>
        <mxCell id="LoJhDoDqKrCYPIB8af0b-7" value="Private - 1A" style="text;html=1;align=center;verticalAlign=middle;whiteSpace=wrap;rounded=0;" vertex="1" parent="1">
          <mxGeometry x="250" y="570" width="220" height="30" as="geometry" />
        </mxCell>
        <mxCell id="LoJhDoDqKrCYPIB8af0b-8" value="Private - 1C" style="text;html=1;align=center;verticalAlign=middle;whiteSpace=wrap;rounded=0;" vertex="1" parent="1">
          <mxGeometry x="880" y="570" width="220" height="30" as="geometry" />
        </mxCell>
        <mxCell id="LoJhDoDqKrCYPIB8af0b-9" value="Public - 1A" style="text;html=1;align=center;verticalAlign=middle;whiteSpace=wrap;rounded=0;" vertex="1" parent="1">
          <mxGeometry x="250" y="280" width="220" height="30" as="geometry" />
        </mxCell>
        <mxCell id="LoJhDoDqKrCYPIB8af0b-10" value="Public - 1C" style="text;html=1;align=center;verticalAlign=middle;whiteSpace=wrap;rounded=0;" vertex="1" parent="1">
          <mxGeometry x="880" y="280" width="220" height="30" as="geometry" />
        </mxCell>
        <mxCell id="LoJhDoDqKrCYPIB8af0b-11" value="" style="outlineConnect=0;dashed=0;verticalLabelPosition=bottom;verticalAlign=top;align=center;html=1;shape=mxgraph.aws3.route_table;fillColor=#F58536;gradientColor=none;" vertex="1" parent="1">
          <mxGeometry x="662.5" y="363" width="75" height="69" as="geometry" />
        </mxCell>
        <mxCell id="LoJhDoDqKrCYPIB8af0b-12" value="" style="outlineConnect=0;dashed=0;verticalLabelPosition=bottom;verticalAlign=top;align=center;html=1;shape=mxgraph.aws3.route_table;fillColor=#F58536;gradientColor=none;" vertex="1" parent="1">
          <mxGeometry x="673" y="660.5" width="75" height="69" as="geometry" />
        </mxCell>
        <mxCell id="LoJhDoDqKrCYPIB8af0b-15" value="" style="group" vertex="1" connectable="0" parent="1">
          <mxGeometry x="345" y="360" width="69" height="121" as="geometry" />
        </mxCell>
        <mxCell id="LoJhDoDqKrCYPIB8af0b-13" value="" style="outlineConnect=0;dashed=0;verticalLabelPosition=bottom;verticalAlign=top;align=center;html=1;shape=mxgraph.aws3.vpc_nat_gateway;fillColor=#F58534;gradientColor=none;" vertex="1" parent="LoJhDoDqKrCYPIB8af0b-15">
          <mxGeometry width="69" height="72" as="geometry" />
        </mxCell>
        <mxCell id="LoJhDoDqKrCYPIB8af0b-14" value="Nat Gateway" style="text;html=1;align=center;verticalAlign=middle;whiteSpace=wrap;rounded=0;" vertex="1" parent="LoJhDoDqKrCYPIB8af0b-15">
          <mxGeometry x="4.5" y="91" width="60" height="30" as="geometry" />
        </mxCell>
        <mxCell id="LoJhDoDqKrCYPIB8af0b-17" value="" style="shape=flexArrow;endArrow=classic;startArrow=classic;html=1;rounded=0;exitX=0.5;exitY=0;exitDx=0;exitDy=0;exitPerimeter=0;" edge="1" parent="1" source="LoJhDoDqKrCYPIB8af0b-12" target="LoJhDoDqKrCYPIB8af0b-13">
          <mxGeometry width="100" height="100" relative="1" as="geometry">
            <mxPoint x="620" y="650" as="sourcePoint" />
            <mxPoint x="720" y="550" as="targetPoint" />
          </mxGeometry>
        </mxCell>
        <mxCell id="LoJhDoDqKrCYPIB8af0b-18" value="" style="shape=flexArrow;endArrow=classic;startArrow=classic;html=1;rounded=0;exitX=0;exitY=0.5;exitDx=0;exitDy=0;exitPerimeter=0;" edge="1" parent="1" source="LoJhDoDqKrCYPIB8af0b-12" target="Vkwi1uemp1FhmpMpcFgj-4">
          <mxGeometry width="100" height="100" relative="1" as="geometry">
            <mxPoint x="721" y="660" as="sourcePoint" />
            <mxPoint x="424" y="432" as="targetPoint" />
          </mxGeometry>
        </mxCell>
        <mxCell id="LoJhDoDqKrCYPIB8af0b-19" value="" style="shape=flexArrow;endArrow=classic;startArrow=classic;html=1;rounded=0;entryX=1;entryY=0.5;entryDx=0;entryDy=0;entryPerimeter=0;" edge="1" parent="1" source="LoJhDoDqKrCYPIB8af0b-11" target="LoJhDoDqKrCYPIB8af0b-13">
          <mxGeometry width="100" height="100" relative="1" as="geometry">
            <mxPoint x="721" y="671" as="sourcePoint" />
            <mxPoint x="424" y="434" as="targetPoint" />
          </mxGeometry>
        </mxCell>
        <mxCell id="LoJhDoDqKrCYPIB8af0b-20" value="" style="shape=flexArrow;endArrow=classic;startArrow=classic;html=1;rounded=0;" edge="1" parent="1" target="Vkwi1uemp1FhmpMpcFgj-9">
          <mxGeometry width="100" height="100" relative="1" as="geometry">
            <mxPoint x="390" y="360" as="sourcePoint" />
            <mxPoint x="725" y="80" as="targetPoint" />
          </mxGeometry>
        </mxCell>
        <mxCell id="LoJhDoDqKrCYPIB8af0b-21" value="" style="shape=flexArrow;endArrow=classic;startArrow=classic;html=1;rounded=0;" edge="1" parent="1" source="LoJhDoDqKrCYPIB8af0b-1" target="Vkwi1uemp1FhmpMpcFgj-4">
          <mxGeometry width="100" height="100" relative="1" as="geometry">
            <mxPoint x="683" y="705" as="sourcePoint" />
            <mxPoint x="630" y="705" as="targetPoint" />
          </mxGeometry>
        </mxCell>
        <mxCell id="LoJhDoDqKrCYPIB8af0b-22" value="" style="outlineConnect=0;dashed=0;verticalLabelPosition=bottom;verticalAlign=top;align=center;html=1;shape=mxgraph.aws3.route_table;fillColor=#F58536;gradientColor=none;" vertex="1" parent="1">
          <mxGeometry x="362.5" y="871" width="75" height="69" as="geometry" />
        </mxCell>
        <mxCell id="LoJhDoDqKrCYPIB8af0b-24" value="AMI" style="sketch=0;outlineConnect=0;fontColor=#232F3E;gradientColor=none;strokeColor=#232F3E;fillColor=#ffffff;dashed=0;verticalLabelPosition=bottom;verticalAlign=top;align=center;html=1;fontSize=12;fontStyle=0;aspect=fixed;shape=mxgraph.aws4.resourceIcon;resIcon=mxgraph.aws4.ami;" vertex="1" parent="1">
          <mxGeometry x="1241" y="871" width="60" height="60" as="geometry" />
        </mxCell>
      </root>
    </mxGraphModel>
  </diagram>
</mxfile>
